<svg width="128" height="128" viewBox="0 0 128 128" xmlns="http://www.w3.org/2000/svg">
  <defs>
    <linearGradient id="grad1" x1="0%" y1="0%" x2="100%" y2="100%">
      <stop offset="0%" style="stop-color:#667eea;stop-opacity:1" />
      <stop offset="100%" style="stop-color:#764ba2;stop-opacity:1" />
    </linearGradient>
  </defs>

  <!-- Background circle -->
  <circle cx="64" cy="64" r="60" fill="url(#grad1)" stroke="none"/>

  <!-- Document icon -->
  <rect x="36" y="28" width="56" height="72" rx="6" ry="6" fill="white" opacity="0.95"/>

  <!-- Text lines -->
  <rect x="44" y="40" width="40" height="3" rx="1.5" fill="#667eea" opacity="0.8"/>
  <rect x="44" y="48" width="32" height="3" rx="1.5" fill="#667eea" opacity="0.6"/>
  <rect x="44" y="56" width="36" height="3" rx="1.5" fill="#667eea" opacity="0.7"/>
  <rect x="44" y="64" width="28" height="3" rx="1.5" fill="#667eea" opacity="0.5"/>

  <!-- AI spark/summary indicator -->
  <circle cx="76" cy="72" r="8" fill="#ffd700" opacity="0.9"/>
  <path d="M76 66 L78 70 L82 70 L79 73 L80 77 L76 75 L72 77 L73 73 L70 70 L74 70 Z" fill="white"/>

  <!-- Bottom text lines (summarized) -->
  <rect x="44" y="84" width="20" height="2" rx="1" fill="#764ba2" opacity="0.6"/>
  <rect x="44" y="88" width="16" height="2" rx="1" fill="#764ba2" opacity="0.5"/>
</svg>